<?xml version="1.0" encoding="iso-8859-1"?>
<!-- Generator: Adobe Illustrator 19.0.0, SVG Export Plug-In . SVG Version: 6.00 Build 0)  -->
<svg version="1.1" id="Capa_1" xmlns="http://www.w3.org/2000/svg" xmlns:xlink="http://www.w3.org/1999/xlink" x="0px" y="0px"
	 viewBox="0 0 468.293 468.293" style="enable-background:new 0 0 468.293 468.293;" xml:space="preserve">
<g>
	<path style="fill:#E1E6E9;" d="M100.242,143.651c0-10.427,0.817-20.97,3.939-30.864c1.531-4.852,2.371-10.114,2.371-15.615
		c0-24.301-16.329-44-36.472-44s-36.472,19.7-36.472,44c0,5.508,0.845,10.773,2.382,15.627c3.158,9.974,3.968,20.599,3.968,31.114"
		/>
	<path style="fill:#E1E6E9;" d="M40,164.129c0,0-90,127.026,0,225.74h2.097h55.968h2.097c90.001-98.713,0-225.74,0-225.74h0.081"/>
</g>
<rect x="39.961" y="135.805" style="fill:#FCD462;" width="60.285" height="14.155"/>
<g>
	<rect x="39.961" y="149.972" style="fill:#3A556A;" width="60.26" height="14.155"/>
	<polygon style="fill:#3A556A;" points="101.99,121.659 38.198,121.659 39.96,135.816 100.242,135.816 	"/>
</g>
<g>
	<path style="fill:#E1E6E9;" d="M321.251,143.651c0-10.427,0.817-20.97,3.939-30.864c1.531-4.852,2.371-10.114,2.371-15.615
		c0-24.301-16.329-44-36.472-44s-36.472,19.7-36.472,44c0,5.508,0.845,10.773,2.382,15.627c3.158,9.974,3.968,20.599,3.968,31.114"
		/>
	<path style="fill:#E1E6E9;" d="M261.009,164.129c0,0-90,127.026,0,225.74h2.097h55.968h2.097c90.001-98.713,0-225.74,0-225.74
		h0.081"/>
</g>
<rect x="260.995" y="135.805" style="fill:#FCD462;" width="60.285" height="14.155"/>
<g>
	<rect x="260.995" y="149.972" style="fill:#3A556A;" width="60.26" height="14.155"/>
	<polygon style="fill:#3A556A;" points="322.999,121.659 259.207,121.659 260.969,135.816 321.251,135.816 	"/>
</g>
<g>
	<path style="fill:#EBF0F3;" d="M211.291,168.904c0-10.427,0.817-20.97,3.939-30.864c1.531-4.852,2.371-10.114,2.371-15.615
		c0-24.301-16.329-44-36.472-44c-20.143,0-36.472,19.7-36.472,44c0,5.508,0.845,10.773,2.382,15.627
		c3.158,9.974,3.968,20.599,3.968,31.114"/>
	<path style="fill:#EBF0F3;" d="M151.049,189.381c0,0-90,127.026,0,225.74h2.097h55.968h2.097c90.001-98.713,0-225.74,0-225.74
		h0.081"/>
</g>
<rect x="151.009" y="161.093" style="fill:#FCD462;" width="60.285" height="14.155"/>
<g>
	<rect x="151.009" y="175.223" style="fill:#3A556A;" width="60.26" height="14.155"/>
	<polygon style="fill:#3A556A;" points="213.039,146.911 149.246,146.911 151.009,161.068 211.291,161.068 	"/>
</g>
<path style="fill:#64798A;" d="M303.325,398.139c-29.631-19.055-49.276-52.292-49.276-90.139s19.645-71.084,49.276-90.139
	c16.688-10.732,36.531-16.983,57.846-16.983s41.158,6.251,57.846,16.983c29.631,19.055,49.276,52.292,49.276,90.139
	s-19.645,71.084-49.276,90.139c-16.688,10.732-36.531,16.983-57.846,16.983S320.013,408.87,303.325,398.139z"/>
<g>
	<circle style="fill:#3A556A;" cx="413.896" cy="248.133" r="13.331"/>
	<circle style="fill:#3A556A;" cx="379.629" cy="251.96" r="13.331"/>
	<circle style="fill:#3A556A;" cx="420.227" cy="282.905" r="13.331"/>
</g>
<g>
</g>
<g>
</g>
<g>
</g>
<g>
</g>
<g>
</g>
<g>
</g>
<g>
</g>
<g>
</g>
<g>
</g>
<g>
</g>
<g>
</g>
<g>
</g>
<g>
</g>
<g>
</g>
<g>
</g>
</svg>
