<?xml version="1.0" encoding="iso-8859-1"?>
<!-- Generator: Adobe Illustrator 19.0.0, SVG Export Plug-In . SVG Version: 6.00 Build 0)  -->
<svg version="1.1" id="Capa_1" xmlns="http://www.w3.org/2000/svg" xmlns:xlink="http://www.w3.org/1999/xlink" x="0px" y="0px"
	 viewBox="0 0 468.274 468.274" style="enable-background:new 0 0 468.274 468.274;" xml:space="preserve">
<path style="fill:#64798A;" d="M272.254,203.547H66.298L35.615,57.325c-2.327-12.57,1.028-25.424,9.204-35.256
	c8.183-9.831,20.202-15.473,32.995-15.473H260.73c12.785,0,24.812,5.638,32.995,15.465c8.176,9.831,11.538,22.682,9.211,35.26
	L272.254,203.547z M91.154,173.673h156.245l26.161-121.782c0.97-5.237-1.342-8.963-2.801-10.721
	c-1.459-1.754-4.704-4.701-10.028-4.701H77.814c-5.324,0-8.57,2.946-10.028,4.704c-1.459,1.754-3.763,5.481-2.793,10.714
	L91.154,173.673z"/>
<ellipse style="fill:#31978C;" cx="169.272" cy="255.803" rx="169.272" ry="165.239"/>
<g>
	<path style="fill:#FCD462;" d="M47.488,214.515c6.241-4.938,14.033-7.409,23.376-7.409c9.337,0,17.11,2.471,23.307,7.409
		c6.197,4.941,9.293,11.026,9.293,18.256c0,7.23-2.782,13.452-8.351,18.658c7.811,6.018,11.723,13.923,11.723,23.712
		c0,8.266-3.328,15.223-9.971,20.883c-6.649,5.657-15.314,8.486-26.001,8.486c-10.693,0-19.358-2.829-26.007-8.486
		c-6.643-5.66-9.964-12.617-9.964-20.883c0-9.789,3.905-17.694,11.716-23.712c-5.657-5.296-8.483-11.537-8.483-18.727
		C38.127,225.519,41.241,219.457,47.488,214.515z M60.624,283.83c3.139,2.113,6.555,3.168,10.241,3.168
		c3.679,0,7.089-1.055,10.234-3.168c3.146-2.11,4.715-5.186,4.715-9.227c0-4.044-1.526-7.142-4.577-9.296
		c-3.058-2.157-6.517-3.234-10.373-3.234c-3.868,0-7.321,1.077-10.379,3.234c-3.052,2.154-4.577,5.252-4.577,9.296
		C55.908,278.644,57.478,281.721,60.624,283.83z M61.905,242.673c2.555,2.157,5.544,3.234,8.96,3.234
		c3.409,0,6.398-1.077,8.954-3.234c2.562-2.157,3.843-4.825,3.843-8.015c0-3.186-1.262-5.861-3.774-8.018
		c-2.512-2.154-5.525-3.234-9.023-3.234c-3.504,0-6.517,1.08-9.029,3.234c-2.518,2.157-3.774,4.832-3.774,8.018
		C58.062,237.848,59.343,240.516,61.905,242.673z"/>
	<path style="fill:#FCD462;" d="M125.691,209.263h21.021v38.665l35.563-38.665h26.001l-37.453,41.629
		c3.234,4.492,9.205,12.865,17.92,25.125c8.709,12.259,15.226,21.401,19.533,27.416h-24.519l-27.621-37.183l-9.425,10.508v26.676
		h-21.021V209.263z"/>
	<path style="fill:#FCD462;" d="M282.511,255.472h21.147v33.41c-9.343,10.42-22.271,15.628-38.797,15.628
		c-13.832,0-25.442-4.58-34.829-13.741c-9.387-9.161-14.077-20.723-14.077-34.69c0-13.964,4.784-25.618,14.347-34.961
		c9.569-9.34,21.103-14.011,34.628-14.011c13.512,0,25.26,4.445,35.224,13.336l-10.913,15.763c-4.219-3.683-8.106-6.216-11.654-7.61
		c-3.548-1.394-7.384-2.091-11.515-2.091c-7.993,0-14.73,2.719-20.212,8.153c-5.475,5.434-8.213,12.595-8.213,21.486
		c0,8.894,2.625,16.011,7.88,21.354c5.255,5.346,11.515,8.018,18.793,8.018s13.336-1.394,18.19-4.179V255.472z"/>
</g>
<rect x="60.297" y="367.444" style="fill:#E1E6E9;" width="407.977" height="24.957"/>
<path style="fill:#3A556A;" d="M132.043,298.225c-18.261,0-33.065,14.803-33.065,33.065v97.323
	c0,18.261,14.803,33.065,33.065,33.065s33.065-14.803,33.065-33.065V331.29C165.108,313.029,150.304,298.225,132.043,298.225z"/>
<rect x="77.768" y="338.86" style="fill:#2F4859;" width="21.211" height="82.188"/>
<path style="fill:#3A556A;" d="M393.563,298.225c-18.261,0-33.065,14.803-33.065,33.065v97.323
	c0,18.261,14.804,33.065,33.065,33.065c18.261,0,33.065-14.803,33.065-33.065V331.29
	C426.628,313.029,411.824,298.225,393.563,298.225z"/>
<rect x="426.646" y="338.878" style="fill:#2F4859;" width="21.211" height="82.188"/>
<g>
</g>
<g>
</g>
<g>
</g>
<g>
</g>
<g>
</g>
<g>
</g>
<g>
</g>
<g>
</g>
<g>
</g>
<g>
</g>
<g>
</g>
<g>
</g>
<g>
</g>
<g>
</g>
<g>
</g>
</svg>
