<?xml version="1.0" encoding="iso-8859-1"?>
<!-- Generator: Adobe Illustrator 19.0.0, SVG Export Plug-In . SVG Version: 6.00 Build 0)  -->
<svg version="1.1" id="Capa_1" xmlns="http://www.w3.org/2000/svg" xmlns:xlink="http://www.w3.org/1999/xlink" x="0px" y="0px"
	 viewBox="0 0 468.293 468.293" style="enable-background:new 0 0 468.293 468.293;" xml:space="preserve">
<g>
	
		<rect x="1.601" y="163.431" transform="matrix(-0.7071 0.7071 -0.7071 -0.7071 324.9663 213.3356)" style="fill:#EBF0F3;" width="233.398" height="21.08"/>
	
		<rect x="339.568" y="57.28" transform="matrix(-0.7071 0.7071 -0.7071 -0.7071 720.6929 49.4375)" style="fill:#EBF0F3;" width="21.08" height="233.398"/>
</g>
<path style="fill:#44C4A1;" d="M449.561,249.955H18.731C8.387,249.955,0,258.341,0,268.685v170.928
	c0,10.345,8.387,18.731,18.731,18.731h430.83c10.345,0,18.731-8.386,18.731-18.731V268.685
	C468.293,258.341,459.907,249.955,449.561,249.955z"/>
<path style="fill:#64798A;" d="M234.14,117.654c-29.696,0-53.856-24.153-53.856-53.849c0-29.703,24.16-53.856,53.856-53.856
	s53.849,24.153,53.849,53.856C287.989,93.501,263.836,117.654,234.14,117.654z M234.14,31.022c-18.075,0-32.783,14.7-32.783,32.783
	c0,18.075,14.707,32.776,32.783,32.776s32.776-14.7,32.776-32.776C266.916,45.722,252.215,31.022,234.14,31.022z"/>
<g>
	<path style="fill:#FCD462;" d="M122.655,353.321h28.461v44.952c-12.574,14.021-29.977,21.032-52.21,21.032
		c-18.611,0-34.237-6.167-46.859-18.494c-12.629-12.327-18.947-27.885-18.947-46.674c0-18.796,6.434-34.477,19.31-47.044
		c12.869-12.567,28.393-18.857,46.585-18.857s33.99,5.989,47.408,17.952l-14.687,21.21c-5.68-4.96-10.907-8.369-15.681-10.248
		c-4.774-1.866-9.94-2.806-15.496-2.806c-10.756,0-19.825,3.656-27.192,10.969c-7.374,7.313-11.058,16.95-11.058,28.914
		c0,11.963,3.533,21.54,10.605,28.729c7.066,7.196,15.496,10.79,25.285,10.79s17.952-1.873,24.476-5.618V353.321z"/>
	<path style="fill:#FCD462;" d="M228.707,417.858h-28.283v-50.035l-43.868-76.685h30.636l27.37,47.133l27.377-47.133h30.636
		l-43.868,76.685V417.858z"/>
	<path style="fill:#FCD462;" d="M399.645,338.092l-34.258,69.249h-16.861l-34.079-69.249v79.765h-28.283v-126.72h38.25
		l32.632,69.613l32.81-69.613h38.072v126.72h-28.283V338.092z"/>
</g>
<g>
</g>
<g>
</g>
<g>
</g>
<g>
</g>
<g>
</g>
<g>
</g>
<g>
</g>
<g>
</g>
<g>
</g>
<g>
</g>
<g>
</g>
<g>
</g>
<g>
</g>
<g>
</g>
<g>
</g>
</svg>
