<?xml version="1.0" encoding="iso-8859-1"?>
<!-- Generator: Adobe Illustrator 19.0.0, SVG Export Plug-In . SVG Version: 6.00 Build 0)  -->
<svg version="1.1" id="Capa_1" xmlns="http://www.w3.org/2000/svg" xmlns:xlink="http://www.w3.org/1999/xlink" x="0px" y="0px"
	 viewBox="0 0 468.293 468.293" style="enable-background:new 0 0 468.293 468.293;" xml:space="preserve">
<path style="fill:#F6C358;" d="M109.264,256.29c-0.106-0.749,0.442-1.432,1.196-1.491l41.732-3.244
	c19.357,0.361,38.242-6.49,53.7-14.547c21.405-11.156,50.564-36.198,50.564-36.198c16.956-13.437,8.261-13.362,8.261-13.362
	c-8.621-0.305-22.899-39.01-22.899-39.01c-8.431-3.059-17.537-41.672-17.537-41.672c-2.629,1.554-25.927,7.758-25.927,7.758
	c-12.621,2.257-39.119,27.855-39.119,27.855l-2.36,1.674l0.002,0L128.7,178.123c-1.619,2.005-4.558,2.318-6.563,0.698
	c-2.005-1.619-2.318-4.557-0.699-6.563l5.774-7.15l-16.779,11.909c-4.916,3.49-11.75,2.18-15.027-2.88l-7.061-10.9
	c-3.225-4.979-1.734-11.636,3.307-14.764l47.236-29.31l11.816-7.222l16.755-14.872c0,0,34.034-35.257,52.01-39.26
	c0,0,15.481-7.022,43.919,33.881c0,0,20.808,16.794,23.083,42.651c0,0,33.582,23.197,37.341,57.165c0,0,6.927,14.119,13.644,12.277
	l35.789,67.549l-22.214,16.683l-31.512-6.745l-25.951,6.745l-16.683-6.745h-32.438h-26.877l-31.512,6.745l-22.243-6.745h-34.292
	l-15.756,6.745L109.264,256.29z"/>
<path style="fill:#2F4859;" d="M425.393,179.057c-9.15-15.011-28.283-21.028-47.918-16.91l40.992,67.25
	C431.125,213.83,434.544,194.068,425.393,179.057z"/>
<path style="fill:#FCD462;" d="M377.476,162.146c-6.948,1.456-13.957,4.154-20.611,8.21c-25.46,15.519-36.055,44.575-23.667,64.898
	c12.388,20.324,43.069,24.219,68.529,8.7c6.654-4.056,12.264-9.05,16.742-14.558L377.476,162.146z"/>
<g>
	<path style="fill:#27A2DB;" d="M61.568,301.327c-6.451,0-12.557-2.87-17.224-8.111c-3.284-3.679-6.61-5.476-10.489-5.642
		c-0.201-0.007-0.408-0.014-0.608-0.014c-7.71,0-15.959,6.175-18.552,8.616L0,280.839c1.618-1.563,16.374-15.15,34.608-14.493
		c9.653,0.373,18.504,4.778,25.598,12.744c0.726,0.816,1.245,0.996,1.376,0.996l0,0c0.173,0,0.871-0.256,1.763-1.335
		c9.113-11.063,18.524-13.732,24.817-14.023c9.577-0.387,18.884,3.907,27.838,12.937c0.691,0.691,1.424,1.106,1.964,1.106
		c0.56,0.304,1.162-0.567,1.473-0.899c9.183-9.936,19.638-15.364,30.245-15.696c10.42-0.069,20.308,4.031,29.643,12.951
		c0.422,0.401,1.016,0.913,1.687,0.83c0.671-0.055,1.494-0.664,2.213-1.618c7.641-10.199,16.173-12.64,21.988-12.889
		c10.234-0.207,20.128,5.041,30.168,16.263c0.539,0.602,1.113,0.975,1.535,0.996c0.014,0,0.028,0,0.035,0
		c0.366,0,0.857-0.256,1.355-0.712c18.448-16.872,39.884-16.706,57.329,0.491c0.449,0.443,0.899,0.705,1.21,0.705h0.007
		c0.284,0,0.809-0.228,1.418-0.864c15.516-16.042,34.49-17.065,50.767-2.745c0.761,0.664,1.39,1.072,1.736,0.85
		c0.394-0.028,0.947-0.415,1.473-1.044c7.523-8.961,16.519-13.864,26.006-14.168c10.524-0.228,20.682,4.743,30.563,15.081
		c1.258,1.321,1.825,0.795,2.413,0.235c11.955-11.07,22.583-11.859,29.401-10.607c10.96,2.04,20.267,10.718,27.665,25.792
		l-19.077,9.355c-4.093-8.353-8.643-13.546-12.474-14.265c-3.782-0.657-8.602,3.015-11.084,5.317
		c-9.411,8.706-23.254,8.215-32.201-1.155c-3.741-3.907-9.224-8.526-14.265-8.526c-0.09,0-0.173,0-0.263,0
		c-4.142,0.138-7.952,3.665-10.413,6.597c-4.246,5.061-9.978,8.104-16.139,8.574c-6.14,0.512-12.377-1.694-17.37-6.085
		c-6.465-5.684-12.592-7.62-21.456,1.549c-4.501,4.667-10.344,7.274-16.443,7.35c-0.083,0-0.173,0-0.263,0
		c-5.94,0-11.658-2.413-16.125-6.825c-6.659-6.569-15.205-11.706-28.073,0.062c-4.743,4.329-10.683,6.638-16.789,6.251
		c-6.147-0.304-11.942-3.167-16.312-8.049c-7.841-8.768-12.273-8.968-13.414-9.203c-2.227,0.097-4.439,2.448-5.905,4.405
		c-4.432,5.912-10.635,9.487-17.466,10.047c-6.624,0.622-13.069-1.812-18.116-6.638c-5.062-4.847-9.784-7.247-14.306-7.074
		c-6.036,0.187-11.658,4.937-15.302,8.885c-4.508,4.868-10.427,7.606-16.685,7.717c-6.126,0.187-12.592-2.517-17.432-7.385
		c-3.132-3.167-7.924-6.645-11.776-6.686c-3.616,0.173-7.108,3.526-9.404,6.313c-4.709,5.718-11.015,8.941-17.743,9.072
		C61.851,301.327,61.713,301.327,61.568,301.327z"/>
	<path style="fill:#27A2DB;" d="M61.568,355.023c-6.451,0-12.557-2.87-17.224-8.111c-3.284-3.679-6.61-5.476-10.489-5.642
		c-7.724-0.104-16.505,6.092-19.16,8.602L0,334.535c1.618-1.57,16.374-15.088,34.608-14.493c9.653,0.373,18.504,4.778,25.598,12.744
		c0.719,0.816,1.245,0.996,1.369,0.996c0.069,0.062,0.837-0.221,1.777-1.341c9.107-11.056,18.517-13.726,24.81-14.016
		c9.577-0.318,18.884,3.914,27.838,12.937c0.691,0.691,1.417,1.106,1.957,1.106c0.007,0,0.014,0,0.021,0
		c0.553-0.007,1.148-0.567,1.452-0.899c9.19-9.943,19.651-15.364,30.251-15.696c10.42-0.166,20.308,4.038,29.643,12.951
		c0.422,0.408,1.016,0.94,1.687,0.83c0.671-0.055,1.494-0.664,2.213-1.618c7.641-10.199,16.173-12.64,21.988-12.889
		c10.234-0.263,20.128,5.041,30.168,16.263c0.539,0.602,1.113,0.975,1.535,0.996c0.014,0,0.028,0,0.035,0
		c0.366,0,0.857-0.256,1.355-0.712c18.448-16.872,39.884-16.706,57.329,0.491c0.449,0.443,0.906,0.705,1.21,0.705
		c0.007,0,0.007,0,0.007,0c0.284,0,0.809-0.235,1.418-0.864c15.516-16.042,34.49-17.065,50.767-2.745
		c0.622,0.546,1.507,0.885,1.729,0.851c0.401-0.028,0.954-0.422,1.48-1.044c7.523-8.961,16.519-13.864,26.006-14.168
		c10.524-0.235,20.682,4.743,30.563,15.081c1.182,1.238,1.715,0.885,2.42,0.228c11.935-11.05,22.562-11.838,29.394-10.6
		c10.96,2.04,20.267,10.718,27.665,25.792l-19.077,9.355c-4.093-8.353-8.643-13.546-12.474-14.265
		c-3.782-0.678-8.602,3.015-11.084,5.317c-9.418,8.712-23.275,8.208-32.201-1.155c-3.81-3.983-9.231-8.374-14.528-8.526
		c-4.142,0.138-7.952,3.665-10.413,6.597c-4.252,5.061-9.985,8.104-16.146,8.567c-6.237,0.512-12.377-1.694-17.363-6.078
		c-6.465-5.684-12.592-7.62-21.456,1.549c-4.494,4.66-10.337,7.274-16.429,7.35c-0.09,0-0.187,0-0.277,0
		c-5.933,0-11.651-2.413-16.125-6.818c-6.659-6.576-15.219-11.72-28.073,0.055c-4.743,4.329-10.683,6.673-16.789,6.251
		c-6.147-0.304-11.942-3.167-16.312-8.049c-7.841-8.768-12.273-9.044-13.414-9.203c-2.227,0.097-4.439,2.448-5.905,4.405
		c-4.432,5.912-10.635,9.487-17.466,10.047c-6.624,0.636-13.069-1.812-18.116-6.638c-5.062-4.847-9.784-7.212-14.306-7.074
		c-6.036,0.187-11.658,4.93-15.309,8.878c-4.495,4.868-10.42,7.606-16.671,7.724c-6.5,0.353-12.598-2.517-17.439-7.385
		c-3.049-3.077-7.482-6.693-11.478-6.693c-0.104,0-0.201,0.007-0.297,0.007c-3.616,0.173-7.108,3.526-9.404,6.313
		c-4.716,5.718-11.022,8.941-17.757,9.065C61.844,355.023,61.706,355.023,61.568,355.023z"/>
	<path style="fill:#27A2DB;" d="M61.568,410.941c-6.451,0-12.557-2.87-17.224-8.111c-3.284-3.679-6.61-5.476-10.489-5.642
		c-7.724-0.104-16.505,6.092-19.16,8.602L0,390.453c1.618-1.57,16.374-15.088,34.608-14.493c9.653,0.373,18.504,4.778,25.598,12.744
		c0.719,0.816,1.245,0.996,1.369,0.996c0.069,0.062,0.837-0.221,1.777-1.341c9.107-11.056,18.517-13.726,24.81-14.016
		c9.577-0.318,18.884,3.914,27.838,12.937c0.691,0.691,1.417,1.106,1.957,1.106c0.007,0,0.014,0,0.021,0
		c0.553-0.007,1.148-0.567,1.452-0.899c9.19-9.943,19.651-15.364,30.251-15.696c10.42-0.166,20.308,4.038,29.643,12.951
		c0.422,0.408,1.016,0.94,1.687,0.83c0.671-0.055,1.494-0.664,2.213-1.618c7.641-10.199,16.173-12.64,21.988-12.889
		c10.234-0.263,20.128,5.041,30.168,16.263c0.539,0.602,1.113,0.975,1.535,0.996c0.014,0,0.028,0,0.035,0
		c0.366,0,0.857-0.256,1.355-0.712c18.448-16.872,39.884-16.706,57.329,0.491c0.449,0.443,0.906,0.705,1.21,0.705
		c0.007,0,0.007,0,0.007,0c0.284,0,0.809-0.235,1.418-0.864c15.516-16.042,34.49-17.065,50.767-2.745
		c0.622,0.546,1.507,0.885,1.729,0.85c0.401-0.028,0.954-0.422,1.48-1.044c7.523-8.961,16.519-13.864,26.006-14.168
		c10.524-0.235,20.682,4.743,30.563,15.081c1.182,1.238,1.715,0.885,2.42,0.228c11.935-11.05,22.562-11.838,29.394-10.6
		c10.96,2.04,20.267,10.718,27.665,25.792l-19.077,9.356c-4.093-8.353-8.643-13.546-12.474-14.265
		c-3.782-0.678-8.602,3.015-11.084,5.317c-9.418,8.712-23.275,8.208-32.201-1.155c-3.81-3.983-9.231-8.374-14.528-8.526
		c-4.142,0.138-7.952,3.665-10.413,6.597c-4.252,5.062-9.985,8.104-16.146,8.567c-6.237,0.512-12.377-1.694-17.363-6.078
		c-6.465-5.684-12.592-7.62-21.456,1.549c-4.494,4.66-10.337,7.274-16.429,7.35c-0.09,0-0.187,0-0.277,0
		c-5.933,0-11.651-2.413-16.125-6.818c-6.659-6.576-15.219-11.72-28.073,0.055c-4.743,4.329-10.683,6.673-16.789,6.251
		c-6.147-0.304-11.942-3.167-16.312-8.049c-7.841-8.768-12.273-9.044-13.414-9.203c-2.227,0.097-4.439,2.448-5.905,4.405
		c-4.432,5.912-10.635,9.487-17.466,10.047c-6.624,0.636-13.069-1.812-18.116-6.638c-5.062-4.847-9.784-7.212-14.306-7.074
		c-6.036,0.187-11.658,4.93-15.309,8.878c-4.495,4.868-10.42,7.606-16.671,7.724c-6.5,0.353-12.598-2.517-17.439-7.385
		c-3.049-3.077-7.482-6.693-11.478-6.693c-0.104,0-0.201,0.007-0.297,0.007c-3.616,0.173-7.108,3.526-9.404,6.313
		c-4.716,5.718-11.022,8.941-17.757,9.065C61.844,410.941,61.706,410.941,61.568,410.941z"/>
</g>
<g>
	<path style="fill:#64798A;" d="M380.183,207.683c0.164-6.085-4.792-7.597-5.002-7.657l0.677-2.594
		c2.467,0.69,7.089,3.732,6.907,10.326L380.183,207.683z"/>
	<path style="fill:#64798A;" d="M397.812,229.395c4.33-3.936,3.653-12.106-1.512-18.248c-5.166-6.142-12.864-7.931-17.194-3.995
		c-4.33,3.936-3.653,12.106,1.512,18.248C385.784,231.542,393.482,233.331,397.812,229.395z"/>
</g>
<path style="fill:#EBF0F3;" d="M396.387,227.7c3.67-3.336,3.097-10.261-1.282-15.467c-4.378-5.206-10.903-6.722-14.574-3.386
	c-3.67,3.336-3.097,10.261,1.282,15.467C386.191,229.52,392.716,231.036,396.387,227.7z"/>
<path style="fill:#64798A;" d="M362.03,175.341c5.082-2.8,12.18,0.774,15.853,7.985c3.673,7.21,2.532,15.325-2.551,18.126
	c-5.082,2.8-12.18-0.775-15.853-7.985C355.806,186.257,356.948,178.142,362.03,175.341z"/>
<path style="fill:#EBF0F3;" d="M363.044,177.331c4.307-2.374,10.323,0.656,13.437,6.768c3.114,6.111,2.146,12.99-2.162,15.363
	c-4.307,2.374-10.323-0.656-13.437-6.768C357.769,186.583,358.736,179.705,363.044,177.331z"/>
<g>
</g>
<g>
</g>
<g>
</g>
<g>
</g>
<g>
</g>
<g>
</g>
<g>
</g>
<g>
</g>
<g>
</g>
<g>
</g>
<g>
</g>
<g>
</g>
<g>
</g>
<g>
</g>
<g>
</g>
</svg>
